Coordinates
version=1
nRows=10
nColumns=40
inDegrees=yes

Units are S.I. units (second, meters, Newtons, ...)
If the header above contains a line with 'inDegrees', this indicates whether rotational values are in degrees (yes) or radians (no).

endheader
time	pelvis_tilt	pelvis_list	pelvis_rotation	pelvis_tx	pelvis_ty	pelvis_tz	hip_flexion_r	hip_adduction_r	hip_rotation_r	knee_angle_r	knee_angle_r_beta	ankle_angle_r	subtalar_angle_r	mtp_angle_r	hip_flexion_l	hip_adduction_l	hip_rotation_l	knee_angle_l	knee_angle_l_beta	ankle_angle_l	subtalar_angle_l	mtp_angle_l	lumbar_extension	lumbar_bending	lumbar_rotation	arm_flex_r	arm_add_r	arm_rot_r	elbow_flex_r	pro_sup_r	wrist_flex_r	wrist_dev_r	arm_flex_l	arm_add_l	arm_rot_l	elbow_flex_l	pro_sup_l	wrist_flex_l	wrist_dev_l
      0.53000000	     16.30424360	      0.25282023	     -2.46321949	      0.50673237	      0.88232425	     -0.16805368	    -29.80495909	     -0.33441948	     -1.09902332	     13.83101802	      0.24139680	     12.72526815	      0.00000000	      0.00000000	      8.64141847	     -0.35369128	     -2.98771368	     10.69430922	      0.18665091	      7.94752527	      0.00000000	      0.00000000	    -33.03234228	     -5.41042231	     10.99360934	      6.78302236	     -9.47835721	    -11.02655641	     63.63946329	     87.44338699	     -0.32926759	     11.13639057	    -11.60162696	     -6.03199637	      4.50447881	     27.37343747	     89.29504120	      1.35821440	     12.98420623
      0.54000000	     16.11908718	      0.29329044	     -3.05818793	      0.51932958	      0.88161830	     -0.16863893	    -29.81065946	     -0.91746355	     -0.57687940	     14.99563395	      0.26172319	     12.08591539	      0.00000000	      0.00000000	      8.68105618	     -0.32085898	     -3.57918157	     10.89363713	      0.19012984	      7.65135966	      0.00000000	      0.00000000	    -32.67923832	     -5.78725088	     11.87821510	      6.16414874	     -9.58697877	    -11.13070700	     64.33193855	     87.35678851	      0.07194385	     10.45380559	    -11.40035742	     -6.02877458	      5.65014768	     26.63732447	     89.28724295	      1.38034873	     12.60832575
      0.55000000	     15.96243453	      0.29521329	     -3.26385428	      0.53195781	      0.88089442	     -0.16967167	    -29.81636382	     -1.28207784	     -0.46448784	     16.26368575	      0.28385486	     11.12621508	      0.00000000	      0.00000000	      8.76272151	     -0.28515184	     -3.77453428	     11.50812643	      0.20085470	      7.42626436	      0.00000000	      0.00000000	    -32.43039333	     -5.94607108	     11.98398300	      5.83523634	     -9.58705311	    -10.72147188	     64.81941331	     87.35099761	      0.26761980	     10.26532724	    -11.50344020	     -5.98840984	      5.99165165	     26.37305442	     89.28676278	      1.40956105	     12.60075050
      0.56000000	     15.86739288	      0.36974069	     -3.57106917	      0.54483340	      0.88036132	     -0.17063619	    -29.82042231	     -1.77910030	     -0.23959223	     17.62110868	      0.30754636	      9.99825764	      0.00000000	      0.00000000	      8.72294230	     -0.19136402	     -4.07710504	     12.35880003	      0.21570175	      7.11854911	      0.00000000	      0.00000000	    -32.22448838	     -6.22344049	     12.10840622	      5.43721652	     -9.54205760	    -10.33213617	     65.19474074	     87.32271587	      0.47039495	     10.04569779	    -11.56411015	     -5.96740458	      6.38709269	     26.11074142	     89.28757819	      1.50042937	     12.61973720
      0.57000000	     15.82722568	      0.50679042	     -3.86805739	      0.55791763	      0.87999861	     -0.17149965	    -29.81712332	     -2.32067276	      0.01216006	     19.09917488	      0.33334349	      8.71464289	      0.00000000	      0.00000000	      8.58660278	     -0.03853660	     -4.35740011	     13.38479228	      0.23360870	      6.75230620	      0.00000000	      0.00000000	    -32.06727572	     -6.58915306	     12.19425442	      4.96471162	     -9.44526447	     -9.94730622	     65.41701811	     87.29963233	      0.65783208	      9.85205296	    -11.57490229	     -6.00019306	      6.77950789	     25.89723848	     89.30266462	      1.61877105	     12.65905849
      0.58000000	     15.85175500	      0.69368878	     -4.10829191	      0.57125741	      0.87976776	     -0.17269260	    -29.81508492	     -2.90087108	      0.25818407	     20.69881035	      0.36126239	      7.25185107	      0.00000000	      0.00000000	      8.31752762	      0.20156794	     -4.74113133	     14.47123663	      0.25257073	      6.34343860	      0.00000000	      0.00000000	    -31.94020690	     -6.92812207	     12.18557460	      4.43557944	     -9.35087139	     -9.59861984	     65.53995280	     87.27708021	      0.83319354	      9.66995150	    -11.56902285	     -6.04826175	      7.20319182	     25.74815672	     89.29496672	      1.76448745	     12.71530465
      0.59000000	     16.08929457	      1.01315350	     -4.78263777	      0.58473100	      0.88010455	     -0.17305011	    -29.81576606	     -3.86829005	      0.35734189	     22.54808144	      0.39353826	      4.98984740	      0.00000000	      0.00000000	      7.68110701	      0.47339219	     -6.14293649	     15.47406043	      0.27007330	      5.61786588	      0.00000000	      0.00000000	    -32.09078500	     -7.64084798	     12.36567795	      3.82938213	     -9.17269752	     -9.23303588	     65.74813874	     87.19927345	      1.20905372	      9.19347018	    -11.45943640	     -6.20393992	      8.21764699	     25.56270343	     89.28506950	      2.18743754	     12.90020043
      0.60000000	     16.41921783	      1.56817810	     -5.57500840	      0.59843105	      0.88066033	     -0.17346114	    -29.80535012	     -5.10703765	      0.77845273	     24.55063514	      0.42848942	      3.08554071	      0.00000000	      0.00000000	      6.83077175	      1.07268292	     -7.31794369	     16.30554388	      0.28458543	      4.80551642	      0.00000000	      0.00000000	    -32.20376059	     -8.59868721	     12.88118309	      2.96048781	     -8.94589051	     -9.39391237	     65.76059293	     87.16418976	      1.74829480	      8.49771314	    -11.04963609	     -6.42394487	      9.46419770	     25.20563628	     89.27867492	      2.92153676	     13.34754960
      0.61000000	     16.76685830	      1.88289064	     -5.70057095	      0.61186391	      0.88119212	     -0.17470615	    -29.79197146	     -5.79526883	      0.61569895	     26.63229077	      0.46482116	      0.71606511	      0.00000000	      0.00000000	      6.11822096	      1.49110687	     -7.70565895	     17.42608149	      0.30414250	      4.44921309	      0.00000000	      0.00000000	    -32.54131047	     -9.00105523	     12.46943430	      2.37890702	     -8.66610277	     -9.06494329	     65.72701902	     87.19285790	      1.91340355	      8.41146115	    -10.91189728	     -6.57161893	      9.91930244	     25.25847599	     89.28054654	      3.15233861	     13.50128857
      0.62000000	     17.26078890	      2.46644152	     -6.08635361	      0.62553446	      0.88214673	     -0.17558250	    -29.77453046	     -6.91009253	      0.41336524	     28.85195325	      0.50356158	     -2.06028520	      0.00000000	      0.00000000	      5.06655723	      2.22374261	     -8.33267865	     18.17603554	      0.31723167	      3.79996335	      0.00000000	      0.00000000	    -32.93848344	     -9.79779116	     12.13906416	      1.77073857	     -8.30736527	     -8.80829365	     65.39149222	     87.20351161	      2.13787174	      8.32040560	    -10.72157394	     -6.79445519	     10.42669614	     25.39386271	     89.28250403	      3.63545034	     13.93736635
